<?xml version="1.0" encoding="UTF-8" standalone="no"?>
<!-- Created with Inkscape (http://www.inkscape.org/) -->

<svg
   width="92.7845mm"
   height="91.955452mm"
   viewBox="0 0 92.7845 91.955452"
   version="1.1"
   id="svg1"
   xml:space="preserve"
   inkscape:version="1.4.3 (0d15f75042, 2025-12-25)"
   sodipodi:docname="logo t1.svg"
   xmlns:inkscape="http://www.inkscape.org/namespaces/inkscape"
   xmlns:sodipodi="http://sodipodi.sourceforge.net/DTD/sodipodi-0.dtd"
   xmlns="http://www.w3.org/2000/svg"
   xmlns:svg="http://www.w3.org/2000/svg"><sodipodi:namedview
     id="namedview1"
     pagecolor="#ffffff"
     bordercolor="#000000"
     borderopacity="0.25"
     inkscape:showpageshadow="2"
     inkscape:pageopacity="0.0"
     inkscape:pagecheckerboard="0"
     inkscape:deskcolor="#d1d1d1"
     inkscape:document-units="mm"
     inkscape:zoom="2.1594276"
     inkscape:cx="201.90536"
     inkscape:cy="279.24067"
     inkscape:window-width="1328"
     inkscape:window-height="1412"
     inkscape:window-x="0"
     inkscape:window-y="0"
     inkscape:window-maximized="1"
     inkscape:current-layer="layer1" /><defs
     id="defs1" /><g
     inkscape:label="Layer 1"
     inkscape:groupmode="layer"
     id="layer1"
     transform="translate(-2.1166667,-2.1166667)"><path
       style="fill:#6b6b6b;fill-opacity:1;stroke:#6b6b6b;stroke-opacity:1;stroke-width:0.3;stroke-dasharray:none"
       d="m 61.258183,26.303484 c 0.208793,-0.075 0.193406,-0.61067 -0.0603,-2.09907 -0.142875,-0.8382 -0.278887,-1.65494 -0.302249,-1.81499 -0.02336,-0.16005 -0.08886,-0.34834 -0.145543,-0.41842 -0.0706,-0.0873 -0.07221,-0.10893 -0.0051,-0.0687 0.0649,0.0389 0.08368,0.004 0.05567,-0.10292 -0.04679,-0.17894 0.04599,-0.28529 0.749094,-0.85867 0.874507,-0.71315 1.510297,-1.32366 1.510297,-1.45025 0,-0.29075 -0.354649,-0.34722 -1.792208,-0.28533 l -1.382792,0.0595 -0.649774,-1.34011 c -1.258772,-2.59614 -1.508843,-2.71165 -1.943376,-0.89771 -0.09788,0.40861 -0.243424,1.10488 -0.323423,1.54726 l -0.145453,0.80433 -0.300913,-0.0175 c -0.165502,-0.01 -0.685193,-0.13169 -1.154869,-0.27122 -1.586204,-0.47123 -1.898134,-0.34851 -1.136504,0.44713 0.22865,0.23886 0.637801,0.71185 0.909234,1.0511 0.271432,0.33925 0.642188,0.74032 0.8239,0.89126 l 0.330387,0.27444 -0.389768,1.31007 c -0.214373,0.72054 -0.397045,1.44343 -0.405938,1.60641 -0.02778,0.5091 0.248077,0.44317 1.580567,-0.37776 0.645372,-0.3976 1.188673,-0.72291 1.207336,-0.72291 0.142381,0 1.379106,1.13068 1.696309,1.55086 0.554075,0.73395 0.803665,0.99149 0.901989,0.93072 0.04664,-0.0288 0.05879,-0.0103 0.02701,0.0411 -0.06668,0.1079 0.193169,0.26646 0.346443,0.2114 z m -0.627767,-0.8079 c -0.522506,-0.69569 -1.639556,-1.78803 -1.967304,-1.92379 -0.142862,-0.0592 -0.259749,-0.14697 -0.259749,-0.1951 0,-0.0481 -0.06668,-0.0277 -0.148167,0.0454 -0.08149,0.0731 -0.281516,0.16875 -0.4445,0.21256 -0.162983,0.0438 -0.285864,0.12609 -0.273068,0.18284 0.01279,0.0568 -0.01527,0.0794 -0.06236,0.0503 -0.04709,-0.0291 -0.374307,0.12233 -0.727146,0.33651 -0.680959,0.41337 -1.010579,0.56578 -1.077946,0.49841 -0.02269,-0.0227 0.02627,-0.18218 0.108803,-0.35442 0.203843,-0.4254 0.567756,-1.82328 0.613088,-2.35503 l 0.03693,-0.43319 -0.505178,-0.49814 c -0.277848,-0.27398 -0.547992,-0.49988 -0.600319,-0.50199 -0.05233,-0.002 -0.08461,-0.0528 -0.07173,-0.11257 0.0203,-0.0943 -0.355039,-0.60158 -0.85261,-1.15235 -0.23569,-0.26089 -0.0511,-0.25157 0.933774,0.0471 0.823148,0.24965 1.549186,0.35796 1.659653,0.24759 0.02351,-0.0235 0.158627,-0.61404 0.300264,-1.31234 0.299885,-1.47849 0.491148,-2.15862 0.607032,-2.15862 0.11536,0 0.312531,0.33976 1.148693,1.97941 l 0.728777,1.42907 1.239169,-0.0657 c 1.328795,-0.0704 1.620891,-0.0688 1.69802,0.01 0.02703,0.0275 -0.255651,0.33138 -0.628184,0.67539 -0.372533,0.34402 -0.668265,0.66298 -0.657182,0.70881 0.01108,0.0458 -0.02702,0.0671 -0.08467,0.0474 -0.05765,-0.0198 -0.274768,0.11339 -0.482485,0.29588 l -0.377667,0.33181 0.110196,0.61733 c 0.557366,3.12245 0.660088,3.877 0.527806,3.877 -0.05198,0 -0.273358,-0.23813 -0.491948,-0.52917 z"
       id="path254" /><path
       style="fill:#6b6b6b;fill-opacity:1"
       d="m 84.123385,40.566254 c 0.04771,-0.0582 0.127463,-0.25824 0.177217,-0.4445 0.09339,-0.34964 0.263374,-3.73907 0.26426,-5.26929 l 5.01e-4,-0.86661 0.529167,-0.2656 c 0.291041,-0.14608 0.884092,-0.48001 1.317889,-0.74205 0.433797,-0.26205 0.948147,-0.56641 1.143,-0.67636 0.659987,-0.37242 0.735278,-0.43733 0.735278,-0.63395 0,-0.50619 -0.523814,-0.67449 -3.00326,-0.96497 l -1.267593,-0.14851 -0.318386,-1.18533 c -0.884346,-3.29238 -1.220911,-4.20858 -1.564532,-4.25899 -0.36065,-0.0529 -0.841535,0.77289 -1.858251,3.19108 -0.340413,0.80965 -0.63404,1.48719 -0.652504,1.50566 -0.07349,0.0735 -0.907179,-0.27151 -1.747289,-0.72308 -1.219699,-0.6556 -1.952572,-0.94522 -2.140019,-0.84571 -0.188075,0.0998 -0.187917,0.30811 4.46e-4,0.59049 0.08125,0.12179 0.246596,0.36944 0.367444,0.55033 0.120847,0.18089 0.473242,0.82419 0.7831,1.42955 0.309857,0.60537 0.706282,1.28723 0.880944,1.51524 0.174661,0.22801 0.353579,0.46314 0.397595,0.5225 0.09328,0.1258 -0.79886,2.09622 -1.364959,3.01471 -0.194478,0.31553 -0.403522,0.71177 -0.464542,0.88052 -0.104145,0.288 -0.09848,0.31691 0.09234,0.47143 0.150781,0.12209 0.270769,0.14989 0.464543,0.10763 0.365894,-0.0798 2.063054,-0.66635 2.957391,-1.02209 0.723846,-0.28793 0.752553,-0.2925 0.861261,-0.1373 0.06185,0.0883 0.383879,0.48219 0.715619,0.87529 0.422878,0.5011 0.745432,1.00577 1.07914,1.68841 0.615369,1.2588 0.849508,1.63064 0.979708,1.55588 0.05654,-0.0325 0.07414,-0.0274 0.03912,0.0112 -0.08744,0.0964 0.183387,0.38028 0.362773,0.38028 0.08021,0 0.184884,-0.0476 0.2326,-0.10583 z m -1.055333,-1.66191 c -0.678022,-1.34634 -1.061676,-1.9007 -1.897347,-2.74156 l -0.568765,-0.57231 -0.706455,0.26516 c -3.221567,1.20915 -3.498752,1.27479 -3.091559,0.73206 0.345966,-0.46112 1.040965,-1.74609 1.48458,-2.74481 l 0.419694,-0.94486 -0.204085,-0.19173 c -0.112247,-0.10545 -0.204085,-0.21814 -0.204085,-0.25042 0,-0.0323 -0.176363,-0.32092 -0.391917,-0.64141 -0.215554,-0.32049 -0.594782,-0.99344 -0.84273,-1.49545 -0.247947,-0.502 -0.531774,-1.02643 -0.630727,-1.1654 -0.09895,-0.13897 -0.167252,-0.29065 -0.151775,-0.33709 0.01548,-0.0464 0.307622,0.0495 0.649211,0.21323 0.34159,0.1637 0.661653,0.27256 0.711253,0.2419 0.05221,-0.0323 0.06548,-0.0158 0.03153,0.0392 -0.06854,0.11091 0.736085,0.54105 1.546952,0.82699 0.52994,0.18687 0.771534,0.19094 0.771534,0.013 0,-0.13832 0.982699,-2.53581 1.3742,-3.35264 0.380536,-0.79395 0.629427,-1.19674 0.739492,-1.19674 0.109953,0 1.106216,3.30076 1.392736,4.61434 0.157226,0.72081 0.06283,0.67375 1.769029,0.88196 2.74727,0.33526 2.858421,0.38135 2.090524,0.86688 -0.283133,0.17902 -0.527024,0.32549 -0.541981,0.32549 -0.0896,0 -2.552405,1.46157 -2.606621,1.54691 -0.03637,0.0572 -0.0677,0.65654 -0.06964,1.33176 -0.0045,1.56882 -0.142728,4.66056 -0.217029,4.85419 -0.0313,0.0816 -0.09984,0.13502 -0.152309,0.1188 -0.05247,-0.0162 -0.369142,-0.57305 -0.703713,-1.2374 z"
       id="path253" /><path
       style="fill:#6b6b6b;fill-opacity:1"
       d="m 77.53808,94.043977 c 2.328596,-0.29161 3.513513,-0.55359 4.973391,-1.09956 1.654943,-0.61892 3.05548,-1.38003 4.890427,-2.65767 0.347564,-0.242 1.780052,-1.51832 2.252414,-2.00685 0.660252,-0.68286 1.371243,-1.54593 1.747439,-2.1212 0.174898,-0.26746 0.347108,-0.52438 0.382689,-0.57095 0.684442,-0.89576 1.847613,-3.32495 2.290569,-4.78366 0.279893,-0.92173 0.616142,-2.60584 0.730456,-3.6585 0.335077,-3.085583 -0.225971,-6.785823 -1.428,-9.418013 -0.147729,-0.3235 -0.330479,-0.72355 -0.406109,-0.889 -0.302197,-0.66111 -0.990199,-1.7709 -1.068026,-1.7228 -0.04551,0.0281 -0.05848,0.0119 -0.02883,-0.0361 0.02965,-0.048 -0.06101,-0.25389 -0.201482,-0.45758 -0.14047,-0.20369 -0.391131,-0.57034 -0.557025,-0.81478 -0.167041,-0.24613 -0.341586,-0.41974 -0.391184,-0.38909 -0.05001,0.0309 -0.06486,0.0154 -0.03362,-0.0352 0.03077,-0.0498 -0.196086,-0.37 -0.504115,-0.71159 -0.525015,-0.58221 -1.472992,-1.53045 -1.472992,-1.4734 0,0.0141 -0.169742,-0.14402 -0.377203,-0.35149 -0.207462,-0.20746 -0.417956,-0.35201 -0.467765,-0.32123 -0.04981,0.0308 -0.08009,0.0195 -0.0673,-0.0251 0.04223,-0.14715 -2.043407,-1.62485 -2.293328,-1.62485 -0.04526,0 -0.095,-0.0335 -0.110519,-0.0745 -0.01552,-0.041 -0.352073,-0.23727 -0.747889,-0.43623 -0.395817,-0.19895 -0.727227,-0.36666 -0.736468,-0.37269 -0.0092,-0.006 -0.05912,-0.52411 -0.110854,-1.15128 -0.151131,-1.83232 -0.390647,-3.28922 -0.959989,-5.83931 -0.192778,-0.86345 -1.267133,-4.01765 -1.687049,-4.953 -0.573394,-1.27722 -1.154164,-2.4333 -1.837777,-3.65829 -0.109356,-0.19596 -0.236599,-0.33295 -0.282762,-0.30442 -0.04616,0.0285 -0.05762,0.009 -0.02547,-0.0427 0.03216,-0.052 -0.04768,-0.25412 -0.177418,-0.44908 -0.129736,-0.19497 -0.273984,-0.41425 -0.320551,-0.48729 -0.738162,-1.15785 -1.317778,-1.97055 -1.774225,-2.4877 -0.07193,-0.0815 -0.130775,-0.17145 -0.130775,-0.19991 0,-0.11835 -0.699415,-0.87593 -0.768982,-0.83294 -0.04166,0.0258 -0.05505,-0.007 -0.02976,-0.073 0.07217,-0.18807 -3.81679,-4.06215 -4.422036,-4.40513 -0.109007,-0.0618 -0.109631,-0.0897 -0.0047,-0.21166 0.386294,-0.44907 1.991994,-4.32148 2.676556,-6.45497 0.09688,-0.30192 0.100041,-0.30354 0.793941,-0.40747 1.195647,-0.17907 4.163212,-0.78178 4.265188,-0.86626 0.156948,-0.13002 0.07931,-0.56076 -0.14424,-0.80029 -0.251197,-0.26916 -0.599035,-0.52435 -0.763216,-0.55994 -0.06658,-0.0144 -0.140106,-0.0462 -0.163389,-0.0706 -0.101865,-0.10672 -1.09431,-0.59065 -1.211296,-0.59065 -0.07109,0 -0.14196,-0.0299 -0.157482,-0.0665 -0.01552,-0.0366 -0.352072,-0.23182 -0.747889,-0.43386 -0.395817,-0.20203 -0.772585,-0.41688 -0.837264,-0.47743 -0.100282,-0.0939 -0.09509,-0.35724 0.03529,-1.78863 0.08409,-0.9232 0.156056,-2.33887 0.15993,-3.14593 0.0068,-1.42285 0.0013,-1.47206 -0.183146,-1.62198 -0.185138,-0.15051 -0.529476,-0.14472 -0.529476,0.009 0,0.0411 -0.05394,0.0748 -0.119863,0.0748 -0.176798,0 -1.901405,1.69581 -2.966066,2.91653 -0.509811,0.58454 -0.944441,1.06281 -0.965846,1.06281 -0.141461,0 -1.006896,-0.78428 -1.490619,-1.35084 -0.323145,-0.37848 -0.618852,-0.65282 -0.671386,-0.62287 -0.05164,0.0294 -0.06552,0.0222 -0.03084,-0.016 0.05607,-0.0619 -0.09928,-0.22923 -0.86755,-0.93465 -0.289777,-0.26607 -0.617483,-0.33986 -0.757904,-0.17066 -0.118645,0.14296 -0.09526,0.36078 0.123197,1.14772 0.0711,0.25612 0.185252,0.94291 0.253671,1.52621 0.162346,1.38403 0.253423,1.85148 0.513576,2.63589 l 0.215053,0.64843 -1.083876,1.05454 c -0.596132,0.58 -1.214711,1.1645 -1.37462,1.2989 -0.698753,0.58729 -1.27559,1.20261 -1.27559,1.3607 0,0.0934 0.08016,0.24234 0.178129,0.33104 0.164856,0.14927 0.352193,0.16282 2.513981,0.18184 1.284719,0.0113 2.360766,0.0494 2.391217,0.0847 0.06982,0.0809 0.723501,1.9813 0.837471,2.43478 0.04681,0.18627 0.144043,0.87207 0.216066,1.524 0.07202,0.65194 0.15201,1.25201 0.177749,1.3335 0.05788,0.18326 -0.07545,0.19367 -0.221811,0.0173 -0.05973,-0.072 -0.161623,-0.11051 -0.226431,-0.0856 -0.06481,0.0249 -0.09838,0.0137 -0.07461,-0.0247 0.02377,-0.0385 -0.193322,-0.24313 -0.482436,-0.4548 -0.683763,-0.5006 -2.358037,-1.52858 -2.494162,-1.53137 -0.05821,-10e-4 -0.08581,-0.0222 -0.06134,-0.0467 0.06176,-0.0617 -1.777842,-1.01108 -3.354734,-1.7312 -1.097018,-0.50099 -3.496262,-1.33156 -4.817756,-1.66782 -5.305569,-1.35004 -10.217949,-1.49555 -15.493999,-0.45896 -1.70855,0.33568 -2.8894,0.67068 -4.81178,1.36509 -0.71444,0.25808 -1.32836,0.43587 -1.36538,0.39543 -0.037,-0.0404 -0.14882,-0.29573 -0.2485,-0.56735 -0.44202,-1.20453 -1.81868,-3.0237 -3.5026,-4.62847 -0.86561,-0.82493 -2.01025,-1.70302 -2.1264,-1.63124 -0.0434,0.0268 -0.0552,0.0105 -0.0263,-0.0362 0.0664,-0.10752 -0.24591,-0.44924 -0.41063,-0.44924 -0.068,0 -0.11417,-0.0433 -0.10253,-0.0962 0.0116,-0.0529 -0.24306,-0.32062 -0.56601,-0.59492 -0.50597,-0.42975 -0.70501,-0.53649 -1.43933,-0.77182 -1.31645,-0.4219 -1.23831,-0.28406 -0.85766,-1.51302 0.17815,-0.57514 0.35013,-1.08382 0.38219,-1.13038 0.0572,-0.083 0.41979,-1.07162 1.10152,-3.00295 0.1885,-0.53402 0.39468,-1.02289 0.45818,-1.08639 0.0975,-0.0975 0.19952,-0.0732 0.65586,0.15624 1.61701,0.81295 2.57883,1.57932 3.14164,2.50325 0.27169,0.446 0.39662,0.56025 0.90442,0.8271 0.44535,0.23402 0.77365,0.50614 1.34469,1.11458 0.67881,0.72327 0.81689,0.92956 1.36046,2.03255 l 0.60497,1.22758 0.23904,-0.12361 c 0.13146,-0.068 0.34099,-0.27768 0.46561,-0.466 0.24612,-0.3719 0.28076,-0.47416 0.12884,-0.38027 -0.0611,0.0377 -0.0748,0.0232 -0.0365,-0.0387 0.0337,-0.0545 0.0915,-0.0805 0.12838,-0.0577 0.11772,0.0728 0.70235,-1.91297 0.98355,-3.34071 0.1638,-0.83164 0.28297,-1.09688 0.70581,-1.57089 0.8857,-0.99292 1.04256,-1.22847 1.18926,-1.78591 0.0508,-0.19312 0.14732,-0.3722 0.21444,-0.39795 0.1828,-0.0701 0.0962,-0.34062 -0.3258,-1.017711 -0.45943,-0.73712 -1.57775,-1.7594703 -2.36741,-2.1642203 -0.522,-0.26757 -0.72919,-0.48254 -1.03329,-1.07211 -0.13734,-0.26626 -0.42795,-0.68058 -0.6458,-0.92072 -0.43541,-0.47995 -1.17894,-1.02161 -2.99057,-2.17861 -1.86246,-1.18946 -1.73746,-1.08711 -1.59442,-1.30541 0.18516,-0.2826 0.0787,-1.0126201 -0.17085,-1.1716301 -0.27636,-0.17609 -0.81852,-0.21717 -1.13283,-0.0858 -0.40567,0.1695 -0.50012,0.47795 -0.3153,1.0296601 l 0.14728,0.43966 -0.44734,1.46534 c -0.52224,1.71071 -0.66278,2.19418 -1.0536,3.62435 -0.48298,1.7674703 -0.46794,1.7351703 -0.80995,1.7388203 -0.36257,0.004 -0.50732,0.086 -0.50732,0.28781 0,0.0847 -0.0571,0.2014 -0.127,0.25937 -0.26798,0.22239 -0.0951,0.642041 0.32628,0.792171 0.10577,0.0377 0.13881,0.1032 0.10131,0.20092 -0.0306,0.0798 -0.20611,0.63506 -0.39001,1.23401 -0.1839,0.59895 -0.51083,1.5335 -0.7265,2.07678 -0.21567,0.54328 -0.53613,1.42593 -0.71213,1.96145 -0.22147,0.67386 -0.35484,0.96335 -0.43314,0.94017 -0.67912,-0.20104 -0.74602,-0.20792 -0.95174,-0.0978 -0.25121,0.13444 -1.113,0.07 -1.66414,-0.12447 -0.42451,-0.14978 -1.34033,-0.16438 -1.64358,-0.0262 -0.2469,0.11249 -1.12429,-0.012 -1.54281,-0.21891 -0.93928,-0.46436 -1.60608,-0.57131 -2.18457,-0.35038 -0.20972,0.0801 -0.38131,0.17428 -0.38131,0.20929 0,0.035 -0.44192,0.0725 -0.98204,0.0833 -0.93358,0.0186 -1.27097,0.0857 -1.55796,0.30948 -0.0698,0.0545 -0.3175,0.16968 -0.55033,0.25603 -0.65716,0.24369 -1.57513,0.70626 -1.90357,0.95922 -0.16377,0.12613 -0.65971,0.37645 -1.1021,0.55625 -1.33149,0.54118 -2.3236601,1.17407 -3.0480001,1.94428 -0.34925,0.37136 -1.45931,1.49591 -2.46681,2.49899 -1.00749,1.00308 -1.87758,1.91319 -1.93352,2.02246 -0.0559,0.10927 -0.11251,0.35882 -0.12571,0.55455 -0.0144,0.21416 -0.19985,0.72508 -0.4656,1.28299 -0.67894,1.42537 -0.92485,2.09586 -1.11167,3.03109 -0.0944,0.47264 -0.2245,1.06891 -0.28906,1.32502 -0.12126,0.48103 -0.33427,1.86114 -0.4247,2.75167 -0.12727,1.25322 0.27104,5.21417 0.55265,5.49578 0.0461,0.0461 0.0847,0.18091 0.0859,0.29965 0.002,0.19269 0.43458,1.51488 0.91557,2.79824 0.096,0.25611 0.23208,0.67596 0.30241,0.93299 0.17886,0.65364 0.90143,1.75094 1.08023,1.64044 0.0409,-0.0253 0.0647,-0.0146 0.0528,0.0238 -0.0395,0.12715 4.5823,4.6139 4.68647,4.54952 0.0576,-0.0356 0.0758,-0.0242 0.0439,0.0274 -0.0574,0.0929 0.5282401,0.58887 0.6485501,0.54928 0.0384,-0.0126 0.0475,0.0131 0.0202,0.0573 -0.11213,0.18142 1.75596,1.32476 2.93841,1.7984 0.66767,0.26745 1.99808,0.58087 2.46563,0.58087 h 0.41442 l -0.0519,0.48684 c -0.0285,0.26776 -0.11545,1.00118 -0.19315,1.62983 -0.19385,1.56828 -0.19276,5.18069 0.002,6.81567 0.38209,3.20669 0.96275,5.65389 1.99888,8.42433 1.36898,3.66044 2.90605,6.348943 5.47635,9.578783 1.55857,1.95849 4.69782,4.95238 6.16328,5.87789 0.1397,0.0882 0.27305,0.18402 0.29633,0.21287 0.0233,0.0289 0.34714,0.26054 0.71967,0.51487 4.58702,3.1316 9.84781,5.06623 15.66333,5.76013 1.45249,0.17331 5.8808,0.14658 7.36601,-0.0445 3.570352,-0.45925 6.744459,-1.33427 10.089848,-2.78149 l 0.607186,-0.26267 0.324148,0.25624 c 0.601357,0.47539 2.003659,1.31445 2.944901,1.76207 1.848029,0.87884 3.54428,1.40274 5.464913,1.6879 0.928006,0.13778 3.681892,0.24011 4.318,0.16044 z m -2.879784,-1.70406 c -0.339415,-0.40746 -0.80563,-1.03603 -1.036032,-1.39683 -0.237877,-0.3725 -0.457541,-0.63212 -0.508297,-0.60075 -0.04916,0.0304 -0.06542,0.0165 -0.03614,-0.0309 0.02929,-0.0474 -0.253245,-0.5962 -0.62785,-1.21958 -0.971347,-1.61642 -2.458754,-4.67869 -2.812371,-5.79009 -0.315164,-0.99054 -0.728886,-2.54822 -0.899504,-3.38666 -0.05686,-0.2794 -0.124454,-1.138 -0.150218,-1.908 -0.03982,-1.19012 -0.01872,-1.57724 0.140789,-2.582333 0.103198,-0.65029 0.213982,-1.20999 0.246187,-1.24378 0.06507,-0.0683 1.513412,0.24112 2.65973,0.56816 0.759778,0.21676 2.7533,1.00465 2.975677,1.17606 0.08438,0.065 0.166315,0.470933 0.258492,1.280553 0.599766,5.26797 2.832472,9.89954 6.725395,13.95131 0.420147,0.43729 0.682074,0.77334 0.636211,0.81625 -0.115301,0.10789 -1.669529,0.57467 -2.448624,0.7354 -1.319166,0.27215 -2.046274,0.35274 -3.269165,0.36234 l -1.237166,0.01 z m -3.089216,0.19454 c -2.21423,-0.56567 -4.855533,-1.80477 -5.768084,-2.70593 -0.810743,-0.80062 -2.128766,-3.33783 -2.790046,-5.37086 -0.252231,-0.77545 -0.553671,-1.79092 -0.669866,-2.25658 -0.637653,-2.55548 -0.878757,-5.42118 -0.592984,-7.048073 0.08247,-0.4695 0.174152,-0.8928 0.203737,-0.94067 0.104446,-0.169 1.172271,-0.28225 3.055576,-0.32406 1.607247,-0.0357 3.141653,0.0386 3.260878,0.15779 0.01653,0.0165 -0.05088,0.46751 -0.149794,1.00219 -0.217598,1.176223 -0.257705,3.632813 -0.076,4.655153 0.454278,2.55595 1.150945,4.58819 2.451927,7.15249 0.543283,1.07083 1.054959,2.01414 1.137056,2.09624 0.0821,0.0821 0.128611,0.14927 0.103365,0.14927 -0.131147,0 1.834504,3.01267 2.284481,3.50133 0.165275,0.17948 0.282712,0.35511 0.260972,0.39029 -0.05978,0.0967 -1.473669,-0.14242 -2.711218,-0.45858 z m -25.4,-0.92816 c -2.36783,-0.3261 -2.81039,-0.40614 -4.27566,-0.77337 -1.28872,-0.32297 -1.93782,-0.50844 -2.00118,-0.57179 -0.0325,-0.0325 -0.12941,-0.0591 -0.21542,-0.0591 -0.15117,0 -0.23506,-0.0316 -0.63976,-0.24079 -0.10414,-0.0538 -0.24753,-0.0979 -0.31864,-0.0979 -0.0711,0 -0.19546,-0.0337 -0.27632,-0.0748 -0.0809,-0.0411 -0.24227,-0.11543 -0.35868,-0.1651 -1.1095,-0.4734 -3.55227,-1.61904 -3.64067,-1.70744 -0.0508,-0.0508 -0.727,-0.4227 -0.99417,-0.54682 -0.10442,-0.0485 -0.19014,-0.11676 -0.1905,-0.15168 -3.7e-4,-0.0349 -0.0362,-0.0635 -0.0797,-0.0635 -0.10096,0 -0.97002,-0.52948 -1.00751,-0.61384 -0.0155,-0.0349 -0.0822,-0.0635 -0.14817,-0.0635 -0.066,0 -0.11994,-0.0381 -0.11994,-0.0847 0,-0.0466 -0.0358,-0.0847 -0.0796,-0.0847 -0.0948,0 -2.47467,-1.78013 -2.84539,-2.12832 -0.14192,-0.13329 -0.30609,-0.24235 -0.36483,-0.24235 -0.0587,0 -0.0833,-0.0381 -0.0545,-0.0847 0.0288,-0.0466 0.0111,-0.0847 -0.0393,-0.0847 -0.10122,0 -3.30506,-3.20978 -3.30506,-3.31118 0,-0.0349 -0.0479,-0.11374 -0.10637,-0.17527 -0.13667,-0.14376 -0.47694,-0.56299 -0.71422,-0.87996 -1.27414,-1.70209 -1.79543,-2.43565 -1.88572,-2.65363 -0.0595,-0.14371 -0.14171,-0.26129 -0.18263,-0.26129 -0.0409,0 -0.0744,-0.0388 -0.0744,-0.0861 0,-0.0474 -0.17026,-0.366583 -0.37835,-0.709373 -0.42713,-0.70363 -1.11582,-2.11146 -1.97169,-4.03052 -0.0935,-0.20955 -0.21637,-0.51435 -0.27315,-0.67734 -0.0568,-0.16298 -0.14259,-0.39158 -0.19068,-0.508 -0.25973,-0.62865 -0.5728,-1.64121 -0.5728,-1.85261 0,-0.0987 -0.03,-0.17939 -0.0667,-0.17939 -0.0367,0 -0.073,-0.085 -0.0809,-0.189 -0.008,-0.10395 -0.0511,-0.26588 -0.0962,-0.35983 -0.11793,-0.24564 -0.32943,-1.28362 -0.63,-3.09183 -0.62749,-3.77504 -0.60485,-7.24072 0.0733,-11.20973 0.17089,-1.00026 0.17633,-1.0273 0.317,-1.57494 0.0658,-0.25612 0.16952,-0.69427 0.23053,-0.97367 0.061,-0.2794 0.14289,-0.54419 0.18196,-0.58843 0.0391,-0.0442 0.071,-0.18711 0.071,-0.3175 0,-0.13039 0.0381,-0.23707 0.0847,-0.23707 0.0466,0 0.0847,-0.0767 0.0847,-0.17048 0,-0.0938 0.0335,-0.23664 0.0744,-0.3175 0.0409,-0.0809 0.14189,-0.35657 0.22432,-0.61268 0.52845,-1.64183 1.74635,-4.26382 2.73324,-5.88433 0.95791,-1.57292 2.15635,-3.26698 3.14194,-4.4413 0.64796,-0.77203 2.96231,-3.0569 3.81672,-3.7681 3.85617,-3.20981 7.98213,-5.33472 12.83992,-6.61269 4.49809,-1.18334 9.71706,-1.33349 14.33808,-0.41249 0.974656,0.19425 2.713137,0.62773 3.217333,0.80221 0.116417,0.0403 0.721414,0.24914 1.344439,0.46412 1.183437,0.40834 3.246203,1.29654 4.116561,1.77253 1.841342,1.007 2.334702,1.31234 3.861178,2.38964 4.422975,3.12148 8.349059,7.82182 10.489188,12.55774 1.120037,2.47855 1.815243,4.54679 2.376354,7.06967 0.232651,1.04605 0.494471,2.80235 0.559994,3.75646 0.05175,0.75349 0.04639,0.79077 -0.107123,0.7457 -2.614037,-0.76743 -3.618813,-0.92496 -5.961258,-0.93464 -2.814376,-0.0116 -4.62056,0.31438 -7.005478,1.26445 -2.455687,0.97826 -4.427809,2.26173 -6.355028,4.1359 -1.502561,1.46121 -2.554274,2.88371 -3.541771,4.79046 -1.373348,2.65178 -2.027135,5.18285 -2.121375,8.21267 -0.04874,1.566913 0.04211,2.547653 0.407825,4.402663 0.644899,3.27113 2.419693,6.63013 4.851361,9.18177 0.352623,0.37001 0.641133,0.70433 0.641133,0.74292 0,0.0386 -0.09537,0.10643 -0.211939,0.15075 -0.116567,0.0443 -0.381176,0.15768 -0.588022,0.2519 -0.206845,0.0942 -0.400989,0.17133 -0.431431,0.17133 -0.03044,0 -0.175408,0.0538 -0.322146,0.11956 -0.32034,0.14356 -1.43573,0.54582 -1.790795,0.64584 -1.180658,0.33258 -1.623875,0.44852 -2.286,0.59798 -1.387741,0.31324 -2.9488,0.56802 -4.064,0.66328 -0.60537,0.0517 -1.21497,0.10921 -1.35467,0.12778 -0.60352,0.0802 -4.88064,-0.0368 -5.75733,-0.15756 z m 36.749079,-0.55374 c -0.227272,-0.23075 -0.445859,-0.39936 -0.485749,-0.37471 -0.03989,0.0247 -0.06206,0.0116 -0.04926,-0.029 0.01279,-0.0406 -0.281536,-0.40839 -0.654069,-0.81731 -0.372534,-0.40892 -0.686702,-0.76905 -0.698153,-0.8003 -0.01145,-0.0312 0.16,-0.12805 0.381,-0.21511 0.645764,-0.25441 2.707219,-1.38557 3.534486,-1.93945 0.948609,-0.63511 2.328334,-1.66964 2.328334,-1.74579 0,-0.0313 0.104775,-0.11972 0.232834,-0.19644 0.286309,-0.17153 2.120196,-2.0186 2.773574,-2.79351 0.288887,-0.34263 0.454248,-0.60829 0.416572,-0.66925 -0.0371,-0.06 -0.02655,-0.0789 0.02595,-0.0464 0.16726,0.10337 1.539648,-1.92667 2.50627,-3.70728 0.715604,-1.31822 0.706482,-1.32383 0.47495,0.29213 -0.397731,2.77592 -2.008562,6.3992 -3.73562,8.40261 -0.256519,0.29757 -0.395438,0.52757 -0.357962,0.59267 0.03368,0.0585 0.02976,0.0778 -0.0087,0.0429 -0.0841,-0.0763 -2.038521,1.80488 -2.00116,1.92612 0.01435,0.0466 -1.82e-4,0.0584 -0.03229,0.0263 -0.03211,-0.0321 -0.349609,0.162 -0.705556,0.43137 -1.076706,0.81479 -3.133577,2.03197 -3.444359,2.03824 -0.04832,9.7e-4 -0.273799,-0.18702 -0.501071,-0.41776 z m -19.752246,-3.22074 c -0.05821,-2.2e-4 -0.105833,-0.0544 -0.105833,-0.12034 0,-0.066 -0.03019,-0.13265 -0.06709,-0.14817 -0.163177,-0.0686 -2.191256,-2.71336 -2.422457,-3.159 -0.06021,-0.11605 -0.128128,-0.19233 -0.150938,-0.16952 -0.02281,0.0228 -0.09183,-0.11112 -0.153381,-0.29762 -0.06155,-0.18649 -0.143911,-0.33908 -0.183024,-0.33908 -0.03911,0 -0.07112,-0.0476 -0.07112,-0.10569 0,-0.086 -0.360851,-0.97542 -0.76436,-1.88398 -0.280503,-0.6316 -0.807267,-2.64899 -1.005884,-3.85233 -0.04996,-0.30269 -0.100717,-1.04027 -0.112796,-1.63907 l -0.02196,-1.088733 0.592666,-0.15922 c 1.511828,-0.40613 2.497803,-0.61091 2.497397,-0.5187 -1.49e-4,0.0338 -0.06141,0.40428 -0.136133,0.82338 -0.263844,1.479813 -0.0061,4.674813 0.556719,6.900343 0.472919,1.87014 1.134602,3.80714 1.702282,4.98324 0.322705,0.66857 0.586735,1.24766 0.586735,1.28685 0,0.0392 -0.142875,-0.06 -0.3175,-0.22034 -0.174625,-0.16039 -0.365125,-0.29179 -0.423333,-0.29202 z m 16.806092,-0.14857 c -0.809963,-1.12609 -1.504372,-2.28999 -2.027688,-3.3986 -0.277166,-0.58716 -0.539428,-1.13424 -0.582805,-1.21573 -0.06779,-0.12736 -0.03892,-0.14817 0.205656,-0.14817 0.502204,0 4.113232,-1.90705 5.008578,-2.64512 0.04657,-0.0384 0.456619,-0.3381 0.911227,-0.66604 0.479306,-0.34575 0.802834,-0.63463 0.770085,-0.68762 -0.03304,-0.0535 -0.01698,-0.067 0.03869,-0.0326 0.191414,0.1183 3.123029,-2.74677 3.005368,-2.937153 -0.0289,-0.0467 -0.01511,-0.0619 0.03064,-0.0336 0.115154,0.0712 0.728878,-0.68009 0.65424,-0.80086 -0.0354,-0.0573 -0.02288,-0.0742 0.03049,-0.0412 0.135023,0.0834 1.128,-1.29921 2.19296,-3.05355 0.415122,-0.68385 1.253438,-2.40776 1.729706,-3.55696 0.158729,-0.383 0.310232,-0.69733 0.336672,-0.6985 0.05786,-0.003 0.498471,1.07101 0.792642,1.9313 0.296737,0.8678 0.614399,2.34806 0.731519,3.40877 0.115815,1.0489 0.187118,0.82574 -1.079451,3.378393 -0.814025,1.6406 -1.563081,2.88411 -2.42257,4.02174 -0.600607,0.79497 -2.059764,2.46226 -2.47052,2.82291 -0.157531,0.13831 -0.260607,0.28022 -0.229057,0.31536 0.03155,0.0351 0.01405,0.0391 -0.03888,0.009 -0.05293,-0.0302 -0.148182,0.008 -0.211666,0.0857 -0.215411,0.26255 -1.571814,1.35555 -2.391117,1.92677 -1.004374,0.70025 -2.36686,1.49455 -3.462407,2.0185 -0.455086,0.21764 -0.849687,0.45372 -0.876891,0.52461 -0.0272,0.0709 -0.07736,0.1289 -0.111462,0.1289 -0.0341,0 -0.274381,-0.29528 -0.533959,-0.65617 z m -3.057423,-5.71783 c -0.07618,-0.19946 -0.138502,-0.42806 -0.138502,-0.508 0,-0.0799 -0.03024,-0.14533 -0.0672,-0.14533 -0.03696,0 -0.11731,-0.23813 -0.178554,-0.52917 -0.06124,-0.29104 -0.148319,-0.68157 -0.193501,-0.86783 -0.04518,-0.18627 -0.114391,-0.47202 -0.153798,-0.635 -0.196928,-0.81449 -0.422945,-2.43318 -0.422945,-3.02906 0,-0.313303 0.03112,-0.369143 0.275166,-0.493673 1.24219,-0.63386 3.509486,-2.38417 4.978464,-3.84327 1.023008,-1.01614 1.954298,-2.15444 2.989485,-3.65401 0.508964,-0.73728 1.755323,-3.06332 2.102411,-3.92366 0.377763,-0.93638 0.745864,-1.92527 0.921842,-2.4765 0.10778,-0.33761 0.219496,-0.61383 0.248258,-0.61383 0.198395,0 2.19878,2.08719 3.132018,3.26792 0.376929,0.4769 1.185023,1.82288 1.185023,1.97381 0,0.14975 -0.264318,0.91794 -0.512421,1.48927 -1.062648,2.44703 -1.853251,3.89362 -3.030865,5.54566 -0.21576,0.30269 -0.392611,0.5803 -0.393002,0.61693 -3.92e-4,0.0366 -0.0394,0.0938 -0.08669,0.127 -0.04729,0.0332 -0.396127,0.42236 -0.775192,0.86474 -0.874442,1.020513 -2.52994,2.640263 -3.24516,3.175103 -0.302683,0.22635 -0.607483,0.46232 -0.677333,0.52438 -0.173931,0.15453 -1.4548,1.04063 -1.842973,1.27497 -1.110594,0.67044 -1.405959,0.8379 -2.051694,1.16325 -0.395817,0.19943 -0.9415,0.4662 -1.212629,0.59283 -0.27113,0.12663 -0.513331,0.28331 -0.538225,0.34818 -0.07766,0.2024 -0.16841,0.13122 -0.311977,-0.24471 z m -2.531806,-7.252993 c -1.547812,-0.7151 -3.933984,-1.39133 -6.03103,-1.70918 -1.122585,-0.17015 -4.721674,-0.15019 -5.926666,0.0329 -1.141236,0.17337 -2.644123,0.49701 -3.577167,0.77031 l -0.6985,0.2046 3.41e-4,-0.34998 c 4.8e-4,-0.49349 0.222815,-1.8058 0.475084,-2.80413 0.332922,-1.31749 0.677387,-2.28112 1.218606,-3.40901 0.430081,-0.89628 0.525044,-1.03717 0.699083,-1.03717 0.110768,0 0.751107,-0.0918 1.422975,-0.20399 4.393724,-0.7337 8.563839,-0.38867 12.346042,1.02151 1.875349,0.69922 4.088502,1.90083 5.695344,3.09223 l 0.685842,0.50852 -0.540158,0.54846 c -0.297088,0.30166 -0.777043,0.74195 -1.066568,0.97842 -0.289526,0.23647 -0.505769,0.46334 -0.48054,0.50416 0.02523,0.0408 0.0098,0.0637 -0.03431,0.051 -0.0441,-0.0128 -0.361046,0.18628 -0.704324,0.4424 -0.343278,0.25612 -0.967253,0.68847 -1.386611,0.96079 -0.419358,0.27231 -0.83867,0.54654 -0.931803,0.60939 -0.257122,0.17352 -0.381912,0.15091 -1.165637,-0.21117 z m 6.372637,-5.08183 c -0.302683,-0.23083 -0.594783,-0.42107 -0.649111,-0.42277 -0.05433,-0.002 -0.111478,-0.0354 -0.127,-0.0749 -0.0312,-0.0793 -1.112863,-0.77487 -1.205078,-0.77487 -0.03184,0 -0.132941,-0.0699 -0.224667,-0.15538 -0.185719,-0.17302 -1.180574,-0.69129 -1.326987,-0.69129 -0.05154,0 -0.106413,-0.0353 -0.121935,-0.0786 -0.04808,-0.13382 -1.799692,-0.91506 -2.844467,-1.26866 -1.427332,-0.48308 -3.364707,-0.95508 -4.338088,-1.05688 -0.20955,-0.0219 -0.5715,-0.06 -0.804334,-0.0847 -2.000543,-0.21201 -2.484786,-0.2398 -3.271118,-0.18771 -1.605014,0.10632 -3.306497,0.27769 -4.327715,0.43589 -0.221192,0.0343 -0.402167,0.0373 -0.402167,0.007 0,-0.0568 0.426526,-0.73727 0.510262,-0.81403 0.0254,-0.0233 0.278691,-0.32942 0.56287,-0.68031 0.28418,-0.35089 0.577661,-0.68858 0.65218,-0.75043 0.07452,-0.0618 0.114028,-0.14717 0.0878,-0.18962 -0.02623,-0.0424 -0.01621,-0.0667 0.02227,-0.0539 0.03848,0.0128 0.184187,-0.0913 0.323793,-0.23132 0.139607,-0.14002 0.431093,-0.41361 0.647747,-0.60797 0.216654,-0.19437 0.369054,-0.37826 0.338667,-0.40864 -0.03039,-0.0304 -0.01715,-0.0434 0.02942,-0.029 0.04657,0.0144 0.327148,-0.16334 0.623513,-0.39505 0.296365,-0.23171 0.905965,-0.66898 1.354667,-0.97169 l 0.81582,-0.5504 1.85724,0.057 c 2.363102,0.0725 3.420283,0.20325 5.429385,0.67143 2.102446,0.48994 4.775554,1.62209 6.493442,2.75018 0.476997,0.31323 0.914892,0.56991 0.9731,0.5704 0.05821,4.9e-4 0.0894,0.0173 0.06931,0.0374 -0.02984,0.0298 0.97114,0.83521 1.445369,1.16292 0.24255,0.16761 0.961823,0.85835 0.961823,0.92367 0,0.1853 -1.950546,3.23595 -2.197353,3.43666 -0.02863,0.0233 -0.198228,0.22331 -0.376884,0.4445 -0.178655,0.2212 -0.348813,0.40192 -0.378129,0.4016 -0.02932,-3.1e-4 -0.300951,-0.18942 -0.603634,-0.42025 z m 3.042406,-5.68645 c -1.064913,-0.85062 -2.527333,-1.83849 -3.381073,-2.28393 -0.302683,-0.15792 -0.563033,-0.31571 -0.578555,-0.35063 -0.01552,-0.0349 -0.0584,-0.0635 -0.09528,-0.0635 -0.03688,0 -0.500431,-0.20385 -1.030112,-0.45299 -0.52968,-0.24915 -1.229756,-0.55216 -1.555722,-0.67337 -1.732494,-0.6442 -4.179466,-1.19137 -5.969,-1.33471 -1.75392,-0.1405 -1.922763,-0.16557 -1.753364,-0.26037 0.377604,-0.21132 2.301447,-0.77323 3.343218,-0.97648 1.052367,-0.20531 1.349243,-0.22703 3.151479,-0.23053 1.574046,-0.003 2.166527,0.0284 2.836333,0.15077 1.806665,0.32998 3.780429,0.93479 4.21446,1.29141 0.129319,0.10626 0.290503,0.17194 0.358186,0.14597 0.223445,-0.0857 2.999922,1.50397 3.003417,1.71965 0.0055,0.34122 -1.386374,4.09198 -1.518529,4.09198 -0.03156,0 -0.493021,-0.34797 -1.025461,-0.77327 z M 15.46011,53.288634 c -0.85205,-0.22318 -2.27686,-0.78307 -2.76522,-1.08663 -0.21586,-0.13417 -0.62107,-0.36955 -0.90047,-0.52307 -1.23218,-0.67703 -2.4567901,-1.97623 -2.7933701,-2.96352 -0.17358,-0.50916 -1.24623,-1.7388 -2.15963,-2.47571 -1.72442,-1.39121 -1.70018,-1.34992 -2.44815,-4.17062 -0.0988,-0.37253 -0.27537,-0.87077 -0.39242,-1.1072 -0.19224,-0.38831 -0.22037,-0.58183 -0.29093,-2.00187 -0.043,-0.8646 -0.10067,-1.66186 -0.12823,-1.77169 -0.0312,-0.12421 0.0632,-0.51261 0.2495,-1.02742 0.17865,-0.49354 0.33255,-1.11749 0.38118,-1.5454 0.10053,-0.88477 0.3631,-1.3163 1.05666,-1.73664 0.5887,-0.35679 0.69484,-0.61267 0.55308,-1.33326 -0.0902,-0.4587 -0.0828,-0.5295 0.0912,-0.87221 0.10417,-0.20514 0.25811,-0.46098 0.3421,-0.56854 0.18846,-0.24137 0.16539,-0.84349 -0.038,-0.99223 -0.20681,-0.15122 -0.16949,-0.32426 0.16422,-0.76144 0.44184,-0.57884 0.23545,-0.8537 -0.33927,-0.45183 -0.2985,0.20872 -1.25383,1.64877 -1.43563,2.16406 -0.0675,0.19141 -0.27376,0.62784 -0.45828,0.96984 -0.18453,0.34201 -0.46168,0.93615 -0.6159,1.32033 -0.15422,0.38417 -0.3129,0.6985 -0.35262,0.6985 -0.094,0 9e-5,-0.90804 0.16674,-1.60867 0.4721,-1.98477 2.51809,-5.67927 4.09938,-7.40235 1.10295,-1.20186 2.8046401,-2.51749 4.5808401,-3.54161 2.59554,-1.49653 3.89321,-1.90372 6.32999,-1.98623 2.29943,-0.0779 3.7883,0.12434 7.3702,1.00092 0.22514,0.0551 0.34818,0.15717 0.48683,0.40387 0.28562,0.50818 0.25775,0.55456 -0.395,0.65734 -0.95274,0.15002 -1.79699,0.66494 -1.92474,1.17394 -0.0836,0.33325 0.009,0.44209 0.84912,1.00043 0.72572,0.48216 0.74038,0.49858 0.68919,0.77144 -0.0773,0.412 0.0943,0.52458 0.58853,0.3862 0.52372,-0.14663 1.17139,-0.0573 1.5891,0.21909 0.23699,0.15683 0.49103,0.23641 0.85447,0.26767 0.71697,0.0617 0.76017,0.11099 0.70222,0.80216 -0.0449,0.53563 -0.0271,0.61737 0.27768,1.27194 0.17912,0.38474 0.41033,1.02338 0.5138,1.41919 0.22385,0.85632 0.34248,1.02819 0.5685,0.82365 0.11681,-0.10571 0.15804,-0.2856 0.17336,-0.75634 0.0366,-1.12473 0.14285,-1.42597 0.58675,-1.66354 0.22153,-0.11856 0.6574,-0.12616 0.86493,-0.0151 0.27427,0.14678 0.68525,0.88995 0.7338,1.32691 0.0542,0.48744 -0.27303,1.83689 -0.60348,2.48899 -0.17972,0.35466 -0.34785,0.50858 -1.12089,1.02613 -1.76004,1.17832 -2.99717,2.15768 -4.42296,3.50134 -1.1957,1.12683 -1.39981,1.33104 -1.90301,1.90395 -0.26586,0.30269 -0.60503,0.68369 -0.75371,0.84667 -0.81967,0.8985 -2.58871,3.37324 -3.43468,4.80483 -0.22644,0.3832 -0.41741,0.61384 -0.50825,0.61384 -0.08,0 -0.2699,-0.15479 -0.42193,-0.34398 -0.15204,-0.18918 -0.40643,-0.40596 -0.56533,-0.48174 -0.26141,-0.12465 -0.28407,-0.16351 -0.23814,-0.40833 0.0672,-0.35801 -0.0495,-0.41465 -0.53785,-0.26125 -0.22015,0.0692 -0.61313,0.14473 -0.8733,0.16797 -0.44295,0.0395 -0.4815,0.0279 -0.60617,-0.18314 -0.2949,-0.49923 -0.48705,-1.16524 -0.48709,-1.68836 -3e-5,-0.40474 -0.0317,-0.54399 -0.13273,-0.58274 -0.23808,-0.0914 -0.30532,0.10859 -0.33382,0.99263 -0.0262,0.81291 -0.0145,0.88827 0.17689,1.13921 0.23639,0.30993 0.26082,0.46439 0.0734,0.46439 -0.13116,0 -1.16114,0.77912 -1.38168,1.04516 -0.0639,0.0771 -0.22117,0.14018 -0.34946,0.14018 -0.34621,0 -0.46046,0.18131 -0.34146,0.54187 0.0798,0.24169 0.0727,0.3417 -0.0393,0.5584 -0.10553,0.20407 -0.12496,0.40221 -0.0856,0.87302 0.0845,1.01177 0.1258,1.15673 0.42284,1.48552 0.15704,0.17382 0.31175,0.42053 0.34381,0.54824 0.0588,0.23433 0.31105,0.41026 0.73322,0.51141 0.18436,0.0442 0.23934,0.1168 0.28138,0.37172 0.11267,0.68316 0.24525,0.99326 0.43627,1.02045 0.24649,0.0351 0.33114,-0.15227 0.39444,-0.87297 0.0664,-0.75576 0.0142,-0.9421 -0.29414,-1.04957 -0.13656,-0.0476 -0.47534,-0.26493 -0.75284,-0.48295 -0.58538,-0.4599 -0.67501,-0.67867 -0.6729,-1.64248 9.6e-4,-0.44016 0.0506,-0.74347 0.1619,-0.98853 0.19774,-0.43552 1.09192,-1.33123 1.45548,-1.45797 0.34353,-0.11975 1.20431,-0.11948 1.63655,5.2e-4 0.65346,0.18142 1.48507,1.09431 1.48507,1.63021 0,0.11683 -0.18097,0.58838 -0.40216,1.04789 -0.2212,0.45951 -0.44812,0.94769 -0.50427,1.08484 -1.07737,2.63144 -1.57606,4.2148 -2.06086,6.54334 -0.0905,0.43485 -0.18608,0.82538 -0.21232,0.86784 -0.0707,0.11437 -0.27417,0.0956 -0.98636,-0.0909 z m 55.3959,-21.27372 c -0.04954,-0.24447 -0.130849,-0.8255 -0.180683,-1.29116 -0.128293,-1.1988 -0.288776,-1.91284 -0.637474,-2.83634 -0.167038,-0.44238 -0.356217,-0.97578 -0.420398,-1.18533 l -0.116694,-0.381 -2.089542,0.0289 c -2.174644,0.0301 -2.829944,-0.0122 -2.823076,-0.1823 0.0022,-0.0554 0.219223,-0.25305 0.482196,-0.43932 0.772656,-0.54728 2.820047,-2.57701 2.995069,-2.96923 0.153167,-0.34325 0.152812,-0.34785 -0.09248,-1.20015 -0.141489,-0.49163 -0.304077,-1.37153 -0.382207,-2.06844 -0.07478,-0.66706 -0.194252,-1.43534 -0.265485,-1.70728 -0.07123,-0.27193 -0.109801,-0.51414 -0.08571,-0.53824 0.0442,-0.0442 0.485354,0.38662 1.86714,1.82341 0.415208,0.43174 0.917356,0.88017 1.115886,0.99651 l 0.360963,0.21154 0.36578,-0.39859 c 0.20118,-0.21923 0.355312,-0.43366 0.342516,-0.47652 -0.01279,-0.0429 0.01116,-0.0566 0.05323,-0.0306 0.04207,0.026 0.439977,-0.36169 0.884235,-0.86154 0.444257,-0.49985 1.094689,-1.19174 1.445405,-1.53753 0.350716,-0.34579 0.618526,-0.65968 0.595133,-0.69753 -0.02339,-0.0379 0.01049,-0.0485 0.0753,-0.0236 0.06481,0.0249 0.166701,-0.0137 0.226431,-0.0856 0.05973,-0.072 0.142033,-0.13085 0.182898,-0.13085 0.04086,0 0.0737,0.50483 0.07296,1.12183 -0.0012,1.03927 -0.03213,1.53934 -0.252322,4.08517 l -0.08055,0.93133 0.323893,0.29634 c 0.178141,0.16298 1.024865,0.65282 1.881608,1.08854 1.339891,0.68143 2.093672,1.15539 1.994783,1.25428 -0.01476,0.0148 -0.823985,0.17954 -1.798284,0.3662 -0.974298,0.18665 -1.955333,0.37737 -2.180077,0.42384 -0.224744,0.0465 -0.495766,0.0845 -0.602271,0.0845 -0.227025,0 -0.388205,0.32513 -1.049305,2.11667 -0.960441,2.60272 -1.845624,4.65666 -2.006872,4.65666 -0.06713,0 -0.147966,-0.17787 -0.201996,-0.4445 z m -42.80559,-8.40934 c -0.18627,-0.0598 -0.49107,-0.16687 -0.67734,-0.23802 -0.18626,-0.0712 -0.49538,-0.13104 -0.68693,-0.13309 -0.2808,-0.003 -0.46119,-0.0859 -0.93133,-0.42797 -0.63319,-0.46072 -1.04874,-0.8342 -1.04874,-0.94257 0,-0.15689 0.45095,-0.34421 1.0177,-0.42275 0.74499,-0.10324 1.9817,0.0294 2.52814,0.27108 0.40557,0.17941 1.11083,0.71705 1.11083,0.84683 0,0.0434 -0.0476,0.0802 -0.10583,0.0817 -0.0582,0.001 -0.17963,0.0585 -0.26982,0.12673 -0.15704,0.11879 -0.15793,0.1367 -0.0212,0.42351 0.0785,0.16472 0.14281,0.37076 0.14281,0.45789 0,0.13721 -0.0481,0.15217 -0.35983,0.11186 -0.19791,-0.0256 -0.51224,-0.0954 -0.6985,-0.15519 z m 2.95755,-1.3378 c -1.7484,-1.08541 -2.15322,-1.38885 -2.15322,-1.61396 0,-0.25414 0.66919,-0.16873 1.11859,0.14277 1.29244,0.89582 2.94541,2.26878 2.94541,2.44645 0,0.1752 -0.32387,0.01 -1.91078,-0.97526 z m 6.39811,-3.41948 c -0.20955,-0.4504 -0.50931,-1.01068 -0.66613,-1.24506 -0.48183,-0.72013 -1.5259,-1.72558 -2.08553,-2.00839 -0.56275,-0.28438 -0.7924,-0.51335 -1.09844,-1.0952 -0.11323,-0.2153 -0.38404,-0.54827 -0.60179,-0.73994 -0.39742,-0.34982 -1.70766,-1.18898 -2.39065,-1.53111 -0.34125,-0.17094 -0.36172,-0.20053 -0.30799,-0.44516 0.0317,-0.14413 0.22672,-0.491851 0.43348,-0.772701 0.78146,-1.0615403 1.32665,-2.2797403 1.55997,-3.4856503 0.11604,-0.59978 0.1593,-2.49767 0.0717,-3.1481 -0.0393,-0.2924 -0.0214,-0.36096 0.10294,-0.39348 0.0828,-0.0217 0.14238,-0.004 0.13233,0.0399 -0.01,0.0436 0.47703,0.39305 1.0824,0.77661 2.74505,1.73923 3.56634,2.42228 3.99104,3.31926 0.27841,0.588 0.59242,0.91001 1.1601,1.18963 0.59975,0.29541 1.7086,1.2513603 2.10479,1.8145503 0.29062,0.41313 0.32253,0.507131 0.28289,0.833181 -0.071,0.58394 -0.33113,1.06419 -0.96771,1.7866 -0.32611,0.37008 -0.65038,0.78398 -0.7206,0.91976 -0.0702,0.13578 -0.2441,0.77606 -0.3864,1.42284 -0.14231,0.64678 -0.37266,1.55358 -0.51189,2.01513 -0.23899,0.79221 -0.61135,1.57839 -0.74363,1.57005 -0.033,-0.002 -0.23138,-0.37229 -0.44093,-0.82268 z m -7.08139,-8.705251 c 0.11246,-0.4154103 0.34677,-1.2315403 0.52069,-1.8136303 0.17392,-0.58208 0.47878,-1.66793 0.67747,-2.413 0.24716,-0.92685 0.38117,-1.30589 0.42434,-1.20023 0.0347,0.0849 0.0418,0.69453 0.0158,1.35466 -0.0545,1.38441 -0.28491,2.37613 -0.78077,3.36077 -0.32024,0.6359203 -0.99937,1.6364003 -1.03863,1.5300903 -0.0129,-0.0349 0.0686,-0.40325 0.18106,-0.81866 z"
       id="path252" /><path
       style="fill:#6b6b6b;fill-opacity:1"
       d="m 36.144615,13.543465 c 0.02912,-0.04318 0.287776,-0.141665 0.574694,-0.218773 0.286926,-0.07711 1.053897,-0.379808 1.704431,-0.672582 1.176529,-0.529599 1.183191,-0.531099 1.235083,-0.350456 0.04299,0.149411 -0.06849,0.300595 -0.623601,0.845747 -0.371766,0.365091 -0.713282,0.696859 -0.758908,0.737266 -0.04562,0.04042 -0.04335,0.161389 0.0051,0.268857 0.09287,0.206038 -0.07911,0.362558 -0.304573,0.277186 -0.0783,-0.02965 -0.22503,0.08278 -0.462427,0.354542 -0.191211,0.218896 -0.41329,0.413577 -0.493505,0.432631 -0.202331,0.04808 -0.347249,-0.185287 -0.198285,-0.319218 0.281287,-0.252847 0.588577,-0.615312 0.565347,-0.666848 -0.03719,-0.08251 -0.99066,-0.38704 -1.082429,-0.345678 -0.09959,0.04489 -0.232103,-0.237207 -0.161002,-0.342603 z m 1.281158,0.225103 c 0.237093,0.103549 0.438432,0.0086 0.753959,-0.355732 l 0.244338,-0.282087 -0.478587,0.209129 c -0.263093,0.115292 -0.543131,0.212555 -0.621914,0.217022 -0.185697,0.01065 -0.139506,0.106315 0.102125,0.211979 z"
       id="path251" /><path
       style="fill:#6b6b6b;fill-opacity:1"
       d="m 35.727252,11.116606 c 0.195761,-0.12099 1.010001,0.52637 0.895361,0.71186 -0.0924,0.14945 -0.29618,0.10459 -0.6447,-0.1419 -0.317101,-0.22426 -0.422441,-0.4638 -0.250661,-0.56996 z"
       id="path250" /><path
       style="fill:#6b6b6b;fill-opacity:1"
       d="m 35.180062,11.611106 c 0.135,-0.0518 0.38025,0.0849 0.702151,0.39142 0.15399,0.14663 0.17403,0.21051 0.0957,0.30493 -0.0839,0.10113 -0.16249,0.085 -0.512311,-0.10542 -0.41961,-0.22839 -0.54641,-0.49082 -0.28551,-0.59093 z"
       id="path249" /><path
       style="fill:#6b6b6b;fill-opacity:1"
       d="m 32.239669,10.193491 c 0.04357,-0.0641 0.155814,-0.131513 0.249507,-0.149797 0.399432,-0.0782 1.401489,-1.0351048 1.35256,-1.2917016 -0.0079,-0.041257 -0.155279,-0.1117423 -0.32757,-0.1565943 -0.412534,-0.1073783 -0.58432,-0.2480304 -0.483705,-0.3960466 0.211015,-0.3104499 1.73413,0.2550125 2.916317,1.0826857 0.423998,0.2968547 0.779082,0.5826316 0.789079,0.6350566 0.01,0.05246 -0.03918,0.1308852 -0.109299,0.1743392 -0.08658,0.05367 -0.235863,-0.0017 -0.465032,-0.1726102 -0.185657,-0.138384 -0.375316,-0.2444149 -0.421455,-0.2356169 -0.173297,0.03304 -1.307661,0.9594921 -1.47341,1.2033341 -0.157907,0.23233 -0.159061,0.260393 -0.01354,0.329416 0.08753,0.04154 0.169986,0.132811 0.183356,0.202927 0.04104,0.215232 -0.191424,0.277263 -0.460061,0.122747 -0.213888,-0.123014 -0.253946,-0.191187 -0.247549,-0.421369 0.0097,-0.350955 0.27738,-0.676307 1.003995,-1.2205122 0.319431,-0.2392469 0.593776,-0.4466559 0.609665,-0.4609249 0.0572,-0.05132 -0.252352,-0.2547407 -0.661897,-0.4347947 -0.393155,-0.172848 -0.421028,-0.173651 -0.474386,-0.01361 -0.231916,0.6956827 -1.589111,1.6961378 -1.925067,1.4190618 -0.09253,-0.07632 -0.102144,-0.12672 -0.04149,-0.216 z"
       id="path248"
       inkscape:transform-center-x="-0.12252475"
       inkscape:transform-center-y="-0.98019802" /><path
       style="fill:#6b6b6b;fill-opacity:1"
       d="m 19.3007,19.887234 c 0.0228,-0.0228 0.35757,-0.12017 0.74385,-0.21631 0.50963,-0.12684 0.93351,-0.1705 1.54486,-0.15915 0.5336,0.01 0.87761,-0.0194 0.9382,-0.08 0.28482,-0.28482 -0.69157,-0.46437 -2.26653,-0.41679 -1.2299,0.0372 -1.51325,0.109 -1.59018,0.40318 -0.065,0.24865 0.45954,0.63936 0.6298,0.46909 z"
       id="path247" /><path
       style="fill:#6b6b6b;fill-opacity:1"
       d="m 18.16558,21.772744 c 0.20756,-0.1001 0.25412,-0.39184 0.0889,-0.55706 -0.19073,-0.19073 -1.11652,-0.065 -1.26698,0.17202 -0.097,0.15288 -0.0879,0.20516 0.0623,0.35533 0.15438,0.15439 0.8205,0.17212 1.11578,0.0297 z"
       id="path246" /><path
       style="fill:#6b6b6b;fill-opacity:1"
       d="m 10.86784,21.949364 c 0.27678,-0.18268 0.70327,-0.4242 0.94774,-0.5367 0.24448,-0.1125 0.4445,-0.24009 0.4445,-0.28353 0,-0.15275 -0.24834,-0.29431 -0.35983,-0.20511 -0.0582,0.0466 -0.20108,0.11293 -0.3175,0.14747 -0.41141,0.12206 -1.43933,0.81739 -1.43933,0.97363 0,0.27074 0.21149,0.24279 0.72442,-0.0958 z"
       id="path245" /><path
       style="fill:#6b6b6b;fill-opacity:1"
       d="m 14.63075,24.793654 c 0,-0.1183 -0.083,-0.32738 -0.18449,-0.46462 -0.10146,-0.13725 -0.16814,-0.26111 -0.14816,-0.27526 0.02,-0.0142 0.20777,-0.13527 0.41732,-0.26916 0.97961,-0.62588 1.60866,-1.39573 1.60866,-1.96873 0,-0.3715 -0.28174,-0.57347 -1.21723,-0.87258 -0.75235,-0.24056 -0.84929,-0.25432 -0.96639,-0.13722 -0.10713,0.10713 -0.11089,0.1534 -0.0212,0.26142 0.0599,0.0722 0.15429,0.13125 0.20972,0.13125 0.12205,0 0.49616,0.39006 0.63788,0.66508 0.24455,0.47455 -0.13721,1.13572 -0.87023,1.50717 -0.75633,0.38326 -1.07313,0.45189 -2.50491,0.54267 -1.7499101,0.11094 -1.9905801,0.15716 -2.0242101,0.38867 -0.0333,0.22905 0.20467,0.29251 0.6795701,0.18124 0.20589,-0.0482 0.90979,-0.066 1.63204,-0.0412 1.02531,0.0352 1.36788,0.0797 1.778,0.23079 0.2794,0.10295 0.5442,0.22057 0.58844,0.26139 0.17103,0.1578 0.38523,0.0795 0.38523,-0.14089 z"
       id="path244" /><path
       style="fill:#6b6b6b;fill-opacity:1"
       d="m 7.5010399,26.230824 c 0.19259,-0.1349 0.52571,-0.70452 0.52571,-0.89894 0,-0.0588 0.19492,-0.28804 0.43316,-0.50937 0.437,-0.40599 0.50592,-0.66043 0.17891,-0.66043 -0.164,0 -1.70253,1.49093 -1.82942,1.77281 -0.17591,0.39078 0.27859,0.58524 0.69164,0.29593 z"
       id="path243" /><path
       style="fill:#6b6b6b;fill-opacity:1"
       d="m 27.10497,31.386974 c 0.1068,-0.1068 0.0563,-1.26856 -0.0714,-1.64297 -0.0703,-0.20621 -0.27892,-0.56542 -0.46351,-0.79825 -0.56629,-0.71428 -0.60767,-0.78663 -0.65601,-1.14709 -0.0482,-0.35912 -0.19914,-0.49974 -0.3835,-0.3572 -0.2998,0.23181 -0.40876,0.19613 -0.57945,-0.18976 -0.17381,-0.39291 -0.3493,-0.48141 -0.48254,-0.24332 -0.0702,0.12541 -0.0955,0.12462 -0.29988,-0.009 -0.31485,-0.2063 -0.44417,-0.12008 -0.59382,0.39592 -0.22713,0.78315 -0.25328,1.12037 -0.10857,1.40021 0.1031,0.19938 0.11652,0.35632 0.0607,0.7097 -0.0844,0.53408 0.004,0.83785 0.24414,0.83785 0.11631,0 0.18606,-0.0734 0.22137,-0.23284 0.19763,-0.89265 0.4193,-1.2065 0.85213,-1.2065 0.34834,0 0.5773,0.22801 0.85024,0.84667 0.37454,0.84896 0.49043,1.05377 0.77799,1.37497 0.26622,0.29737 0.49993,0.39419 0.6322,0.26192 z"
       id="path242" /><path
       style="fill:#6b6b6b;fill-opacity:1"
       d="m 19.7214,34.042584 c 0.0757,-0.0576 0.25668,-0.29248 0.40217,-0.52189 0.29147,-0.45961 0.35133,-0.92518 0.12987,-1.01016 -0.19252,-0.0739 -0.28869,0.0115 -0.28869,0.2563 0,0.26166 -0.35544,0.88274 -0.58679,1.02532 -0.10072,0.0621 -0.15042,0.15735 -0.12145,0.23284 0.0589,0.15346 0.27562,0.16166 0.46489,0.0176 z"
       id="path241" /><path
       style="fill:#6b6b6b;fill-opacity:1"
       d="m 16.59114,36.711444 c 0.342,-0.72297 1.01373,-1.47317 1.70144,-1.90018 0.45533,-0.28272 0.53255,-0.5379 0.18886,-0.62416 -0.11732,-0.0294 -0.32706,-0.006 -0.4661,0.0512 -0.16749,0.0694 -0.41689,0.0846 -0.73919,0.0451 -0.26752,-0.0328 -0.65785,-0.0661 -0.8674,-0.0739 -0.37884,-0.0143 -0.38093,-0.0128 -0.36846,0.26139 0.0154,0.33805 -0.17397,0.40766 -0.8871,0.3261 -0.37717,-0.0431 -0.60718,-0.13949 -1.07277,-0.44942 -0.87295,-0.58108 -1.04744,-0.76823 -1.20554,-1.29305 -0.16089,-0.53405 -0.17358,-1.72592 -0.0243,-2.28036 0.293,-1.08813 1.46594,-2.32008 2.70579,-2.84193 0.52445,-0.22074 1.13881,-0.28237 1.23666,-0.12406 0.0824,0.13328 -0.19381,0.39789 -0.53167,0.50939 -0.82702,0.27294 -2.35102,1.44285 -2.2903,1.75816 0.0526,0.27307 0.30498,0.18715 0.71149,-0.2422 0.73331,-0.77452 1.63203,-1.19796 2.78451,-1.31197 0.40979,-0.0405 0.55186,-0.0204 0.73486,0.10435 0.314,0.214 0.73309,0.75156 0.95631,1.22663 0.25137,0.53498 0.36626,0.65964 0.60793,0.65964 0.31416,0 0.35926,-0.26565 0.18537,-1.09207 -0.25121,-1.19394 -0.18886,-1.92546 0.18651,-2.18838 0.19611,-0.13736 0.21605,-0.34608 0.0395,-0.41381 -0.0692,-0.0266 -0.38353,0.0276 -0.6985,0.12027 -0.92604,0.27256 -1.30826,0.29288 -1.75895,0.0935 -0.21603,-0.0956 -0.5916,-0.19426 -0.83461,-0.21935 -0.38319,-0.0395 -0.5144,-0.009 -0.98848,0.23271 -0.4502,0.2292 -0.66567,0.28413 -1.22128,0.31133 -0.73641,0.0361 -0.86046,0.0973 -1.03295,0.50995 -0.0664,0.15881 -0.17719,0.27596 -0.26205,0.27705 -0.24737,0.003 -0.49511,0.27096 -0.72483,0.78349 -0.47593,1.06185 -1.0213,1.58529 -1.65172,1.58529 -0.25627,0 -0.36975,0.0428 -0.4345,0.16377 -0.11533,0.21548 -0.12426,0.18805 0.16778,0.51516 0.14048,0.15735 0.37582,0.49759 0.52296,0.75608 0.23459,0.41208 0.27086,0.56172 0.29443,1.21452 0.026,0.72137 0.0361,0.75405 0.3237,1.05016 0.16325,0.16809 0.29682,0.33495 0.29682,0.3708 0,0.0359 0.0986,0.18241 0.21919,0.32568 0.19312,0.22952 0.27166,0.2605 0.6604,0.2605 0.49885,0 0.64441,0.0991 0.64441,0.43865 0,0.25595 0.0369,0.27257 0.80152,0.36111 0.57958,0.0671 0.96908,0.35165 1.26573,0.92463 0.14438,0.27889 0.30259,0.47598 0.381,0.47464 0.0831,-0.001 0.25175,-0.25105 0.44347,-0.65634 z"
       id="path240" /><path
       style="fill:#6b6b6b;fill-opacity:1"
       d="m 7.6624199,38.205244 c 0.39409,-0.19119 0.8141,-0.67771 0.77232,-0.89463 -0.0149,-0.0771 -0.0562,-0.13594 -0.0918,-0.13079 -0.0356,0.005 -0.27516,0.0564 -0.53228,0.11398 -0.31401,0.0703 -0.56731,0.0791 -0.77155,0.0269 -0.26105,-0.0667 -0.32783,-0.13756 -0.47203,-0.501 -0.14619,-0.36846 -0.15697,-0.49622 -0.0832,-0.98554 0.12286,-0.81517 0.48704,-1.27846 1.38579,-1.76293 0.49045,-0.26438 0.71232,-0.30723 1.09762,-0.21197 0.40762,0.10077 0.36635,-0.41421 -0.0553,-0.69051 -0.19712,-0.12916 -0.28371,-0.13494 -0.70816,-0.0473 -0.80549,0.16637 -0.80579,0.16619 -0.54982,-0.34462 0.12251,-0.24447 0.28081,-0.51046 0.35178,-0.59108 0.10483,-0.11908 0.10902,-0.17069 0.0223,-0.27516 -0.16922,-0.2039 -0.25249,-0.16058 -0.75167,0.39103 -0.99102,1.09512 -1.20172,1.52887 -1.40382,2.88997 -0.16483,1.11003 -0.16493,1.4035 -6.7e-4,1.96854 0.32244,1.10913 0.92886,1.46307 1.79051,1.04503 z"
       id="path239" /><path
       style="fill:#6b6b6b;fill-opacity:1"
       d="m 11.20792,38.490624 c 0.2805,-0.19207 0.14437,-0.65964 -0.321,-1.10255 -0.25641,-0.24404 -0.32024,-0.26777 -0.51798,-0.19259 -0.28294,0.10757 -0.28148,0.15325 0.0243,0.75903 0.28093,0.55653 0.53789,0.72562 0.81466,0.53611 z"
       id="path238" /><path
       style="fill:#6b6b6b;fill-opacity:1"
       d="m 21.5483,38.759304 c 0.0837,-0.1207 0.21879,-0.28156 0.30028,-0.35748 0.17494,-0.16298 0.19588,-0.48732 0.0354,-0.54888 -0.16189,-0.0621 -0.87146,0.40236 -0.9245,0.60517 -0.0518,0.19812 0.14544,0.52064 0.31841,0.52064 0.065,0 0.1867,-0.0988 0.27037,-0.21945 z"
       id="path237" /><path
       style="fill:#6b6b6b;fill-opacity:1"
       d="m 15.76623,51.860244 c 0.0689,-0.11148 -0.007,-0.39871 -0.17122,-0.64964 -0.1725,-0.26326 -0.80277,-0.74466 -1.78525,-1.36356 -0.76297,-0.48061 -1.16774,-0.78952 -1.87115,-1.42796 -0.79628,-0.72275 -1.9764001,-2.09628 -2.1846301,-2.54269 -0.17646,-0.37829 -0.18758,-0.46366 -0.0992,-0.762 0.16243,-0.54854 1.0433501,-1.35006 2.0839701,-1.89614 0.87181,-0.45749 1.09126,-0.67772 0.97561,-0.9791 -0.13548,-0.35305 -0.96867,0.0564 -2.0629,1.01382 -0.6525101,0.57091 -1.1402201,0.90734 -1.2117101,0.83585 -0.0702,-0.0702 0.37639,-0.80336 1.0171901,-1.66985 0.62843,-0.84975 0.77728,-1.26769 0.49066,-1.37768 -0.5113,-0.1962 -1.3746601,0.68992 -2.0531601,2.10729 -0.26192,0.54716 -0.5008,0.99483 -0.53084,0.99483 -0.03,0 -0.21563,-0.29527 -0.41243,-0.65616 -0.39071,-0.71649 -0.62288,-1.47155 -0.77451,-2.51884 -0.10993,-0.75926 -0.17357,-0.93133 -0.34443,-0.93133 -0.17765,0 -0.26115,1.02968 -0.10779,1.32929 0.15962,0.31187 0.14815,1.30084 -0.0208,1.79679 -0.17842,0.52363 -0.0703,0.91572 0.39142,1.41952 0.31509,0.34381 0.33471,0.39626 0.33684,0.90074 0.002,0.47767 0.0291,0.56249 0.24975,0.78317 0.21213,0.21214 0.31248,0.24749 0.70248,0.24749 0.50388,0 0.55189,0.0372 1.46626,1.13747 0.6792501,0.81732 2.2266201,2.39396 2.6662201,2.71666 0.22433,0.16467 0.89564,0.58406 1.4918,0.93197 0.82077,0.479 1.16029,0.63256 1.39851,0.63256 0.17302,0 0.33475,-0.0326 0.35939,-0.0725 z"
       id="path236" /><path
       style="fill:#6b6b6b;fill-opacity:1"
       d="m 57.963068,55.871464 c 4.274703,-0.57801 7.579008,-2.68053 9.383523,-5.97072 0.549484,-1.00187 0.892994,-2.1608 1.055129,-3.55977 0.0886,-0.76445 0.08305,-1.05391 -0.0386,-2.01373 -0.07814,-0.61653 -0.194921,-1.26253 -0.259521,-1.43556 -0.0646,-0.17303 -0.167338,-0.49558 -0.228306,-0.71677 -0.06097,-0.22119 -0.140633,-0.40216 -0.177034,-0.40216 -0.0364,0 -0.06618,-0.0561 -0.06618,-0.12459 0,-0.31701 -0.738315,-1.68439 -1.555639,-2.88108 -0.574998,-0.84189 -1.389514,-1.7073 -2.463815,-2.61776 -0.834255,-0.70702 -2.382886,-1.82724 -2.526046,-1.82724 -0.01928,0 -0.297501,-0.14418 -0.618275,-0.32041 -0.320774,-0.17622 -0.811825,-0.41076 -1.091225,-0.5212 -0.2794,-0.11044 -0.544195,-0.23295 -0.588434,-0.27226 -0.04424,-0.0393 -0.168063,-0.0715 -0.275166,-0.0715 -0.107104,0 -0.194734,-0.0381 -0.194734,-0.0847 0,-0.0466 -0.07672,-0.0847 -0.170482,-0.0847 -0.09377,0 -0.23664,-0.0344 -0.3175,-0.0764 -0.08086,-0.042 -0.318468,-0.12257 -0.528018,-0.17899 -0.20955,-0.0564 -0.4572,-0.13345 -0.550333,-0.1712 -0.09313,-0.0378 -0.283633,-0.0923 -0.423333,-0.12114 -0.1397,-0.0289 -0.4064,-0.0895 -0.592667,-0.13478 -1.249082,-0.30347 -2.864422,-0.44422 -4.487352,-0.391 -0.74507,0.0244 -1.52612,0.0825 -1.73566,0.12907 -0.20954,0.0465 -0.65894,0.13213 -0.99866,0.19018 -0.33973,0.0581 -0.63725,0.13721 -0.66117,0.17591 -0.0239,0.0387 -0.13469,0.0704 -0.24617,0.0704 -0.11148,0 -0.30925,0.0428 -0.4395,0.0952 -0.13025,0.0524 -0.31302,0.12347 -0.40615,0.15801 -0.66291,0.24583 -1.71681,0.7346 -2.4524,1.13734 -0.55834,0.3057 -1.73191,1.25129 -2.30702,1.85886 -1.30826,1.38208 -2.13759,2.95446 -2.52848,4.79392 -0.23036,1.084 -0.21508,2.75847 0.0354,3.88504 0.4466,2.00828 1.38198,3.88451 2.73134,5.47865 2.61461,3.08893 6.32662,5.14349 10.70177,5.92333 1.06189,0.18928 3.885255,0.23521 5.020657,0.0817 z m -4.374788,-1.61552 c -1.84632,-0.27113 -4.06033,-0.95918 -5.34486,-1.66105 -2.0355,-1.11218 -2.96448,-1.81499 -4.36034,-3.29871 -2.53632,-2.69599 -3.55991,-6.25665 -2.64854,-9.21318 0.70657,-2.29214 2.32906,-4.11483 4.72077,-5.30326 2.9269,-1.45437 6.57161,-1.73258 10.204436,-0.77892 0.914724,0.24012 2.902832,1.01626 3.672207,1.43359 1.614568,0.87579 2.952636,1.92578 4.193071,3.29034 0.275152,0.30268 0.535383,0.53986 0.578292,0.52706 0.04291,-0.0128 0.05684,0.011 0.03096,0.0529 -0.02588,0.0419 0.165003,0.39297 0.424192,0.78021 1.220951,1.82411 1.741493,3.43796 1.746005,5.41318 0.0094,4.12571 -2.846028,7.29462 -7.704284,8.55003 -1.333767,0.34465 -3.916887,0.44205 -5.511909,0.20783 z"
       id="path235" /><path
       style="fill:#6b6b6b;fill-opacity:1"
       d="m 51.19149,48.736458 c -0.02574,-0.0671 -0.02167,-0.32429 0.009,-0.57157 l 0.05584,-0.4496 0.423333,-0.14385 c 0.846512,-0.28763 1.750029,-0.8282 1.794149,-1.07342 0.01517,-0.0843 0.05243,-1.59715 0.08281,-3.3619 l 0.05524,-3.20864 -0.246432,0.0612 c -0.135537,0.0337 -0.760781,0.0805 -1.389431,0.10404 -1.401553,0.0526 -1.483792,0.0168 -1.380448,-0.59959 0.07534,-0.44942 0.05889,-0.43547 0.914781,-0.77511 0.783498,-0.3109 1.835463,-1.00562 2.505898,-1.65489 l 0.542101,-0.52499 0.66529,-0.0399 c 0.49245,-0.0296 0.68311,-0.0111 0.73391,0.0711 0.0857,0.13867 0.0516,0.79291 -0.12343,2.36711 -0.0864,0.77713 -0.15634,2.41432 -0.19059,4.4612 l -0.0541,3.23354 0.48983,0.21663 c 0.26941,0.11915 0.52555,0.21663 0.56921,0.21663 0.0437,0 0.28822,0.0988 0.54348,0.21956 l 0.46412,0.21956 -0.0249,0.56361 -0.0249,0.5636 -1.651,0.0517 c -0.90805,0.0284 -2.340871,0.0797 -3.184042,0.11384 -1.296841,0.0526 -1.540248,0.0433 -1.57984,-0.0598 z"
       id="path1" /></g></svg>
