<?xml version="1.0"?>
<svg xmlns:rdf="http://www.w3.org/1999/02/22-rdf-syntax-ns#" xmlns="http://www.w3.org/2000/svg" xmlns:cc="http://web.resource.org/cc/" xmlns:dc="http://purl.org/dc/elements/1.1/" xmlns:svg="http://www.w3.org/2000/svg" id="svg2" viewBox="0 0 370.5 1154.6" version="1.0">
  <g id="layer1" transform="translate(-48.179 116.2)">
    <path id="path2219" transform="matrix(.89017 0 0 .86695 51.072 -57.569)" d="m234.28-67.625s-128.56 180-128.56 334.28c0 45.29 14.28 119.14 34.53 204.78-71.634 98.04-143.5 195.21-143.5 261.31 0 131.81 74.687 241.91 201.94 241.91 22.62 0 43.96-2.33 63.78-6.78 7.03 37.32 11.97 69.12 11.81 93.02-0.96 144.5-61.22 173.5-97.12 185.8-5.96 2-13.46-0.2-21 0 21.24-12.3 35.28-33.3 35.28-57.2 0-37.9-35.22-68.6-78.6-68.6-43.368 0-78.559 30.7-78.559 68.6 0 31.4 24.293 57.9 57.375 66 17.854 7.8 53.354 4.1 79.784 8.3 32.17 5.1 122.46-45 121.34-204.3-0.17-23.9-4.3-57.1-11.53-96.59 80.82-24.97 131.72-87.97 131.72-172.44-0.07-99.02-81.54-166.69-187.25-166.69-8.36 0-16.38 0.55-24.06 1.56-6.41-25.36-12.72-50.59-18.82-75.28 62.32-53.13 119.88-127.74 122.88-274.84 3.26-159.97-42.88-322.84-42.88-322.84l-28.56-20.005zm25.72 145.69s22.47 5.723 22.47 128.03c0 63.65-59.54 151.48-124.25 240.66-17.58-77.75-29.66-143.48-29.66-182.97 0-145.74 131.44-185.72 131.44-185.72zm-96.44 487.72c5.37 21.06 10.91 42.43 16.5 63.91-74.89 20.38-111.5 89.67-111.5 142.69 0.002 53.36 59.73 99.49 90.88 115.71-36.81-20.78-45.16-73.74-45.16-107.15 0-28.21 28.02-91.01 74.03-119.6 25.13 96.24 50.43 192.62 67.03 271.13-21.42 14.36-44.07 22.75-63.9 22.75-60 0-167.22-39.99-167.41-214.38-0.094-85.34 69.489-120.09 139.53-175.06zm-4.12 322.31c2.74 1.55 5.65 2.93 8.72 4.1-2.53-1.02-5.48-2.41-8.72-4.1zm77.72-241.43c74.28 0 100 59.95 100 145.72 0 49.69-28.71 96.39-64.5 126.93-16.34-78.17-40.46-173.22-64.35-267.65 9.1-3.21 18.74-5 28.85-5z"/>
  </g>
  <metadata>
    <rdf:RDF>
      <cc:Work>
        <dc:format>image/svg+xml</dc:format>
        <dc:type rdf:resource="http://purl.org/dc/dcmitype/StillImage"/>
        <cc:license rdf:resource="http://creativecommons.org/licenses/publicdomain/"/>
        <dc:publisher>
          <cc:Agent rdf:about="http://openclipart.org/">
            <dc:title>Openclipart</dc:title>
          </cc:Agent>
        </dc:publisher>
        <dc:title>treble clefs</dc:title>
        <dc:date>2007-02-28T08:24:06</dc:date>
        <dc:description>Three hand drawn treble clefs</dc:description>
        <dc:source>http://openclipart.org/detail/3336/treble-clefs-by-zeimusu</dc:source>
        <dc:creator>
          <cc:Agent>
            <dc:title>zeimusu</dc:title>
          </cc:Agent>
        </dc:creator>
        <dc:subject>
          <rdf:Bag>
            <rdf:li>clef</rdf:li>
            <rdf:li>clip art</rdf:li>
            <rdf:li>clipart</rdf:li>
            <rdf:li>image</rdf:li>
            <rdf:li>media</rdf:li>
            <rdf:li>music</rdf:li>
            <rdf:li>musical note</rdf:li>
            <rdf:li>note</rdf:li>
            <rdf:li>png</rdf:li>
            <rdf:li>public domain</rdf:li>
            <rdf:li>svg</rdf:li>
            <rdf:li>treble</rdf:li>
          </rdf:Bag>
        </dc:subject>
      </cc:Work>
      <cc:License rdf:about="http://creativecommons.org/licenses/publicdomain/">
        <cc:permits rdf:resource="http://creativecommons.org/ns#Reproduction"/>
        <cc:permits rdf:resource="http://creativecommons.org/ns#Distribution"/>
        <cc:permits rdf:resource="http://creativecommons.org/ns#DerivativeWorks"/>
      </cc:License>
    </rdf:RDF>
  </metadata>
</svg>
